<?xml version="1.0" encoding="UTF-8"?>
<svg width="108px" height="21px" viewBox="0 0 108 21" version="1.1" xmlns="http://www.w3.org/2000/svg" xmlns:xlink="http://www.w3.org/1999/xlink">
    <!-- Generator: Sketch 52.2 (67145) - http://www.bohemiancoding.com/sketch -->
    <title>Group 3</title>
    <desc>Created with Sketch.</desc>
    <defs>
        <path d="M6.05859375,16.0317073 L0.43359375,16.0317073 L0.57421875,15.083346 L2.34375,14.6391768 L2.34375,7.25636433 L0.57421875,6.5961128 L0.7265625,5.68376524 L4.01953125,5.40766006 L4.3125,5.70777439 L4.3125,14.6391768 L6.1875,15.0713415 L6.05859375,16.0317073 Z M13.4015625,15.083346 L13.2375,16.0317073 L7.79999998,16.0317073 L7.91718748,15.1553735 L9.68671873,14.663186 L9.68671873,7.37641006 L7.88203123,6.75217226 L7.99921873,5.8398247 L11.4914062,5.37164634 L11.690625,5.59973323 L11.4914062,7.1363186 L11.6085937,7.1363186 C12.0539085,6.59210856 12.5812469,6.13994083 13.190625,5.77980183 C13.800003,5.41966283 14.448434,5.23959604 15.1359375,5.23959604 C16.0500046,5.23959604 16.7492163,5.53570588 17.2335937,6.12793445 C17.7179712,6.72016302 17.9601562,7.55647326 17.9601562,8.63689024 L17.9601562,14.663186 L19.6476562,15.083346 L19.5304687,16.0317073 L14.26875,16.0317073 L14.3859375,15.1553735 L16.003125,14.663186 L16.003125,9.1050686 C16.003125,8.36078134 15.81758,7.80657575 15.4464844,7.44243521 C15.0753888,7.07829467 14.5812531,6.89622713 13.9640625,6.89622713 C13.5265603,6.89622713 13.1046895,6.98626053 12.6984375,7.16633003 C12.2921855,7.34639953 11.9445327,7.60049379 11.6554687,7.92862043 L11.6554687,14.663186 L13.4015625,15.083346 Z M22.6078125,12.9105183 L22.6546875,6.87221799 L21.1664062,6.87221799 L21.1664062,6.22397104 C21.6429711,5.8238166 22.1390599,5.33163402 22.6546875,4.74740854 C23.170315,4.16318305 23.6390604,3.57496485 24.0609375,2.98273628 L24.6820312,2.98273628 L24.6820312,5.8398247 L27.9984375,5.8398247 L27.8929687,6.89622713 L24.6585937,6.89622713 L24.6234375,12.2022485 C24.6234375,12.8024801 24.6820306,13.2746553 24.7992187,13.6187881 C24.9164068,13.9629209 25.0999987,14.2070115 25.35,14.3510671 C25.6000012,14.4951227 25.9320291,14.5671494 26.3460937,14.5671494 C26.6039075,14.5671494 26.8578112,14.5171308 27.1078125,14.4170922 C27.3578137,14.3170536 27.5746084,14.2070128 27.7582031,14.0869665 C27.9417978,13.9669201 28.0335937,13.9028964 28.0335937,13.8948933 L28.2796875,14.5431402 C27.9124981,15.0953534 27.4554714,15.5275137 26.9085937,15.8396341 C26.361716,16.1517546 25.7601595,16.3078125 25.1039062,16.3078125 C24.3148398,16.3078125 23.6996115,16.0537182 23.2582031,15.5455221 C22.8167946,15.037326 22.5999999,14.1590001 22.6078125,12.9105183 Z M34.5210937,16.3918445 C33.7632774,16.3918445 33.0464877,16.1817666 32.3707031,15.7616044 C31.6949184,15.3414423 31.150002,14.71521 30.7359374,13.8828887 C30.3218729,13.0505675 30.1148437,12.0541979 30.1148437,10.89375 C30.1148437,9.7493083 30.3511695,8.74893721 30.8238281,7.89260671 C31.2964867,7.03627621 31.9039025,6.38003277 32.6460937,5.92385671 C33.3882849,5.46768065 34.149996,5.23959604 34.9312499,5.23959604 C35.5093778,5.23959604 36.0367163,5.38565022 36.5132812,5.67776296 C36.9898461,5.9698757 37.3667954,6.40203601 37.6441406,6.97425686 C37.9214857,7.54647771 38.0601562,8.24073525 38.0601562,9.0570503 C38.0601562,9.24112135 38.0406251,9.4952156 38.0015624,9.8193407 C37.9624998,10.1434658 37.9195314,10.4095645 37.8726562,10.6176448 L32.2007812,10.6896723 C32.2320314,11.3619317 32.3726549,12.0141737 32.6226562,12.6464177 C32.8726574,13.2786617 33.2378882,13.7968539 33.7183593,14.2010099 C34.1988305,14.6051659 34.782809,14.8072409 35.4703124,14.8072409 C35.8453143,14.8072409 36.1421864,14.7972371 36.3609374,14.7772294 C36.5796885,14.7572217 36.8335923,14.6992002 37.1226562,14.6031631 C37.4117201,14.507126 37.7476543,14.3550696 38.1304687,14.1469893 L38.3765624,14.7832317 C37.9078101,15.2874263 37.3394564,15.6815725 36.6714843,15.9656822 C36.0035122,16.2497918 35.2867225,16.3918445 34.5210937,16.3918445 Z M34.3570312,6.41604421 C34.0289046,6.41604421 33.7085953,6.53808948 33.3960937,6.78218369 C33.0835921,7.0262779 32.8199229,7.39841594 32.6050781,7.89860899 C32.3902332,8.39880204 32.2632814,9.01703138 32.2242187,9.75331555 L35.9039062,9.47721037 C35.9273438,9.38917639 35.9449218,9.25912815 35.9566406,9.08706174 C35.9683594,8.91499533 35.9742187,8.76894115 35.9742187,8.64889482 C35.9742187,7.1603203 35.4351616,6.41604421 34.3570312,6.41604421 Z M45.9773437,15.083346 L45.8132812,16.0317073 L40.3757812,16.0317073 L40.4929687,15.1553735 L42.2624999,14.663186 L42.2624999,7.37641006 L40.4578124,6.75217226 L40.5749999,5.8398247 L44.0671874,5.37164634 L44.2664062,5.59973323 L44.0671874,7.1363186 L44.1843749,7.1363186 C44.6296897,6.59210856 45.1570281,6.13994083 45.7664062,5.77980183 C46.3757842,5.41966283 47.0242152,5.23959604 47.7117187,5.23959604 C48.6257857,5.23959604 49.3249975,5.53570588 49.8093749,6.12793445 C50.2937524,6.72016302 50.5359374,7.55647326 50.5359374,8.63689024 L50.5359374,14.663186 L52.2234374,15.083346 L52.1062499,16.0317073 L46.8445312,16.0317073 L46.9617187,15.1553735 L48.5789062,14.663186 L48.5789062,9.1050686 C48.5789062,8.36078134 48.3933612,7.80657575 48.0222656,7.44243521 C47.6511699,7.07829467 47.1570343,6.89622713 46.5398437,6.89622713 C46.1023415,6.89622713 45.6804707,6.98626053 45.2742187,7.16633003 C44.8679666,7.34639953 44.5203139,7.60049379 44.2312499,7.92862043 L44.2312499,14.663186 L45.9773437,15.083346 Z M55.1835937,12.9105183 L55.2304687,6.87221799 L53.7421874,6.87221799 L53.7421874,6.22397104 C54.2187523,5.8238166 54.7148411,5.33163402 55.2304687,4.74740854 C55.7460962,4.16318305 56.2148416,3.57496485 56.6367187,2.98273628 L57.2578124,2.98273628 L57.2578124,5.8398247 L60.5742187,5.8398247 L60.4687499,6.89622713 L57.2343749,6.89622713 L57.1992187,12.2022485 C57.1992187,12.8024801 57.2578118,13.2746553 57.3749999,13.6187881 C57.492188,13.9629209 57.6757799,14.2070115 57.9257812,14.3510671 C58.1757824,14.4951227 58.5078103,14.5671494 58.9218749,14.5671494 C59.1796887,14.5671494 59.4335924,14.5171308 59.6835937,14.4170922 C59.9335949,14.3170536 60.1503896,14.2070128 60.3339843,14.0869665 C60.517579,13.9669201 60.6093749,13.9028964 60.6093749,13.8948933 L60.8554687,14.5431402 C60.4882793,15.0953534 60.0312526,15.5275137 59.4843749,15.8396341 C58.9374972,16.1517546 58.3359407,16.3078125 57.6796874,16.3078125 C56.890621,16.3078125 56.2753927,16.0537182 55.8339843,15.5455221 C55.3925758,15.037326 55.1757811,14.1590001 55.1835937,12.9105183 Z M67.7882811,16.0317073 L62.1867186,16.0317073 L62.3156249,15.083346 L64.1085936,14.6391768 L64.1085936,2.26246189 L62.2570311,1.61421494 L62.3976561,0.701867378 L65.7726561,0.437766768 L66.0656249,0.725876524 L66.0656249,14.6391768 L67.9289061,15.0713415 L67.7882811,16.0317073 Z M70.9945311,20.5934451 C70.6507794,20.5934451 70.3402356,20.5234191 70.0628905,20.3833651 C69.7855454,20.243311 69.5707038,20.0632442 69.4183592,19.8431593 C69.2660147,19.6230744 69.1898436,19.3969905 69.1898436,19.1649009 C69.1898436,18.8927959 69.2367182,18.6407024 69.3304686,18.4086128 C69.4242191,18.1765232 69.5960924,17.9484386 69.8460936,17.7243521 C70.1664077,17.9484386 70.4652329,18.1104987 70.742578,18.2105373 C71.0199231,18.310576 71.3109359,18.3605945 71.6156249,18.3605945 C72.0062518,18.3605945 72.3675763,18.2485529 72.6996092,18.0244665 C73.0316422,17.80038 73.3382797,17.3322063 73.6195311,16.6199314 L73.8539061,16.0317073 L70.5140624,6.93224085 L69.0609374,6.47606707 L69.1898436,5.55171494 L74.1117186,5.55171494 L74.0062499,6.44005335 L72.5179686,6.89622713 L74.9085936,13.3666921 L77.4398436,6.95625 L75.9046874,6.45205793 L76.0687499,5.55171494 L80.0765624,5.55171494 L79.9945311,6.44005335 L78.8109374,6.93224085 L74.9320311,16.6679497 C74.5257791,17.7003481 74.135158,18.4966435 73.7601561,19.0568598 C73.3851542,19.617076 72.9828145,20.0132229 72.5531249,20.2453125 C72.1234352,20.4774021 71.6039092,20.5934451 70.9945311,20.5934451 Z" id="path-1"></path>
        <path d="M16.8700842,16.3316883 L14.1946448,16.3316883 L14.1946448,19.4293178 C14.1956414,19.6500294 14.0658156,19.8494613 13.8660678,19.9340617 C13.6663199,20.0186621 13.4362796,19.9716463 13.283857,19.8150691 L9.89344909,16.3549263 C9.89344909,16.3549263 9.89344909,16.3386597 9.87523333,16.3316883 L2.62991578,16.3316883 C1.93202825,16.3316885 1.2627576,16.0485926 0.769490174,15.5447436 C0.276222748,15.0408947 -0.000588437875,14.3576135 1.57937561e-05,13.6453719 L1.57937561e-05,2.69328781 C-0.00240524091,1.97983956 0.273603553,1.29476516 0.767068124,0.789406734 C1.2605327,0.284048311 1.93084203,-4.27850855e-06 2.62991578,0 L16.8700842,0 C17.569158,-4.27850855e-06 18.2394673,0.284048311 18.7329319,0.789406734 C19.2263964,1.29476516 19.5024052,1.97983956 19.4999842,2.69328781 L19.4999842,13.6453719 C19.5005884,14.3576135 19.2237773,15.0408947 18.7305098,15.5447436 C18.2372424,16.0485926 17.5679717,16.3316885 16.8700842,16.3316883 Z M8.52792591,4.16216645 L8.52558996,4.16216645 C8.36114088,4.32539856 8.31192945,4.57096504 8.40091541,4.78429611 C8.48990136,4.99762718 8.69954857,5.13668247 8.93204549,5.13658531 L15.5824988,5.13658531 C15.899866,5.13658531 16.1571429,4.88106032 16.1571429,4.56585427 C16.1571429,4.25064821 15.899866,3.99512322 15.5824988,3.99512322 L8.93438144,3.99512322 C8.78190075,3.99480336 8.63559585,4.05493108 8.52792591,4.16216645 Z M8.52792591,7.58655914 L8.52558996,7.58655914 C8.36114088,7.74979084 8.31192945,7.9953567 8.40091541,8.20868723 C8.48990136,8.42201777 8.69954857,8.56107271 8.93204549,8.56097556 L15.5824988,8.56097556 C15.899866,8.56097556 16.1571429,8.30545121 16.1571429,7.99024594 C16.1571429,7.67504068 15.899866,7.41951633 15.5824988,7.41951633 L8.93438144,7.41951633 C8.7818494,7.41893781 8.63544817,7.47910497 8.52792591,7.58655914 Z M8.52792591,11.5816811 L8.52558996,11.5816811 C8.36114088,11.7449128 8.31192945,11.9904787 8.40091541,12.2038092 C8.48990136,12.4171397 8.69954857,12.5561947 8.93204549,12.5560975 L15.5824988,12.5560975 C15.899866,12.5560975 16.1571429,12.3005732 16.1571429,11.9853679 C16.1571429,11.6701626 15.899866,11.4146383 15.5824988,11.4146383 L8.93438144,11.4146383 C8.7818494,11.4140598 8.63544817,11.4742269 8.52792591,11.5816811 Z M3.50014029,3.99925883 L3.50235232,4.01337301 C3.40023254,4.12190663 3.34285714,4.26914859 3.34285714,4.422684 C3.34285714,4.5762194 3.40023254,4.72346136 3.50235232,4.83199499 L4.16596181,5.53770359 C4.26802086,5.6463018 4.40647908,5.70731707 4.55085532,5.70731707 C4.69523155,5.70731707 4.83368978,5.6463018 4.93574882,5.53770359 L6.52619957,3.84165058 C6.6816426,3.67644771 6.72838514,3.42802917 6.64468638,3.21193899 C6.56098762,2.99584881 6.36327887,2.8545087 6.14351809,2.85365854 C5.99984412,2.85370016 5.86211499,2.91465736 5.76083662,3.0230286 L4.55306735,4.30036117 L4.2699273,3.99925883 C4.16786825,3.89066062 4.02941003,3.82964535 3.88503379,3.82964535 C3.74065756,3.82964535 3.60219933,3.89066062 3.50014029,3.99925883 Z M6.52630245,7.83777462 L6.52630245,7.84250665 C6.68164523,7.67634497 6.72835762,7.42648466 6.64471284,7.20914033 C6.56106807,6.991796 6.36348683,6.84963558 6.14386778,6.84878049 C6.00028647,6.84882235 5.86264617,6.91013334 5.76143312,7.01913354 L4.55444279,8.3015135 L4.27148536,7.99866362 C4.13406484,7.85158218 3.93377007,7.79414034 3.74605015,7.84797588 C3.55833023,7.90181143 3.41170428,8.05874546 3.36140488,8.25966244 C3.31110548,8.46057942 3.3647743,8.67495529 3.50219482,8.82203673 L4.16537632,9.53184113 C4.26736954,9.64106963 4.40573847,9.70243902 4.55002158,9.70243902 C4.6943047,9.70243902 4.83267363,9.64106963 4.93466685,9.53184113 L6.52630245,7.83777462 Z M3.50014029,11.4183066 L3.50235232,11.4300878 C3.40023254,11.5388007 3.34285714,11.6862858 3.34285714,11.8400748 C3.34285714,11.9938637 3.40023254,12.1413488 3.50235232,12.2500617 L4.16596181,12.9569357 C4.26802086,13.0657132 4.40647908,13.1268293 4.55085532,13.1268293 C4.69523155,13.1268293 4.83368978,13.0657132 4.93574882,12.9569357 L6.52619957,11.2627943 C6.6816426,11.0973186 6.72838514,10.8484899 6.64468638,10.6320428 C6.56098762,10.4155958 6.36327887,10.2740223 6.14351809,10.2731707 C5.99984412,10.2732124 5.86211499,10.3342703 5.76083662,10.4428205 L4.55306735,11.7199062 L4.2699273,11.4183066 C4.16786825,11.3095291 4.02941003,11.248413 3.88503379,11.248413 C3.74065756,11.248413 3.60219933,11.3095291 3.50014029,11.4183066 Z" id="path-3"></path>
    </defs>
    <g id="Page-1" stroke="none" stroke-width="1" fill="none" fill-rule="evenodd">
        <g id="iPhone-8" transform="translate(-40.000000, -43.000000)">
            <g id="Group-3" transform="translate(40.000000, 43.000000)">
                <g id="Logo-Type" transform="translate(27.500000, 0.000000)">
                    <mask id="mask-2" fill="white">
                        <use xlink:href="#path-1"></use>
                    </mask>
                    <use id="intently-copy" fill="#F9F9F9" opacity="0.9" xlink:href="#path-1"></use>
                    <g id="Color/Layout/Black" mask="url(#mask-2)" fill="#000C18">
                        <g transform="translate(40.000000, 10.500000) scale(-1, 1) translate(-40.000000, -10.500000) translate(-1.000000, 0.000000)" id="Rectangle-Copy-12">
                            <rect x="0" y="0" width="82" height="21"></rect>
                        </g>
                    </g>
                </g>
                <g id="Logo-Icon" transform="translate(0.000000, 0.512195)">
                    <mask id="mask-4" fill="white">
                        <use xlink:href="#path-3"></use>
                    </mask>
                    <use id="Mask" fill="#E3E3E3" fill-rule="nonzero" xlink:href="#path-3"></use>
                    <g id="Color/Interactive/Base" mask="url(#mask-4)" fill="#39CCCC">
                        <g transform="translate(0.000000, -0.512195)" id="Rectangle-Copy-21">
                            <rect x="0" y="0" width="20" height="21"></rect>
                        </g>
                    </g>
                </g>
            </g>
        </g>
    </g>
</svg>