<svg width="359" height="160" viewBox="0 0 359 160" fill="none" xmlns="http://www.w3.org/2000/svg">
<circle cx="80" cy="80" r="80" fill="#FCC32B"/>
<path fill-rule="evenodd" clip-rule="evenodd" d="M80 160C124.183 160 160 124.183 160 80C160 35.8172 124.183 0 80 0C35.8172 0 0 35.8172 0 80C0 124.183 35.8172 160 80 160ZM63.8904 40H47V120H96.2V105.992H63.8904V40ZM99.0855 111.6C100.004 110.907 100.88 110.171 101.715 109.391C109.238 102.397 113 92.3253 113 79.1756C113 66.8274 109.384 57.2111 102.153 50.3266C94.9221 43.4422 84.7692 40 71.6947 40H66.6V53.8781H72.5712C87.764 53.8781 95.3603 62.4563 95.3603 79.6127C95.3603 91.4171 91.6469 99.245 84.22 103.096H99.0855V111.6ZM111 120H99.2179V114.89C100.783 113.834 102.253 112.667 103.627 111.388C104.032 111.012 104.427 110.629 104.811 110.238L111 120ZM70.5714 86.2928L66.6 89.1276V72.0712L70.0763 67.1956L78.1924 57.0624C82.2644 57.8632 85.3012 59.5755 87.4922 62.0434C88.502 63.1808 89.3763 64.5275 90.0993 66.0999L82.7274 75.4036L91.4108 89.1005C90.4954 92.5712 89.0299 95.2901 87.1022 97.3491C85.3324 99.2393 83.0514 100.702 80.1824 101.671L70.5714 86.2928ZM110.78 40L104.216 48.2838C104.174 48.2432 104.131 48.2026 104.089 48.1622C100.52 44.7736 96.3354 42.1837 91.5702 40.3597L91.8583 40H110.78Z" fill="#F84C41"/>
<path d="M180.722 74.3773V40H190.009V66.8663H203.243V74.3773H180.722Z" fill="#F84C41"/>
<path d="M235.967 56.4664C235.967 60.4466 235.213 63.7688 233.706 66.4329C232.23 69.0971 230.145 71.0872 227.45 72.4032C224.755 73.7192 221.579 74.3773 217.922 74.3773H206.805V40H218.692C224.242 40 228.508 41.4123 231.492 44.237C234.476 47.0616 235.967 51.1381 235.967 56.4664ZM226.343 56.8034C226.343 50.6085 223.825 47.511 218.788 47.511H216.093V66.77H218.162C220.985 66.77 223.055 65.9515 224.37 64.3144C225.685 62.6774 226.343 60.1738 226.343 56.8034Z" fill="#F84C41"/>
<path d="M269.575 74.3773H259.084L252.299 61.233L249.556 62.87V74.3773H240.22V40H249.556V54.9257C249.941 54.1874 250.39 53.4492 250.903 52.7109C251.417 51.9406 251.914 51.2183 252.395 50.5443L259.613 40H269.767L258.94 55.4072L269.575 74.3773Z" fill="#F84C41"/>
<path d="M196.458 88.1635C193.635 88.1635 191.212 88.8054 189.191 90.0894C187.17 91.3412 185.614 93.1066 184.523 95.3856C183.465 97.6325 182.935 100.248 182.935 103.234C182.935 106.315 183.417 109.011 184.379 111.322C185.342 113.601 186.785 115.367 188.71 116.619C190.667 117.87 193.089 118.496 195.977 118.496C197.645 118.496 199.169 118.368 200.548 118.111C201.96 117.854 203.291 117.533 204.542 117.148V119.556C203.355 120.005 202.056 120.358 200.644 120.615C199.233 120.872 197.581 121 195.688 121C192.223 121 189.32 120.262 186.978 118.785C184.668 117.309 182.919 115.238 181.732 112.574C180.577 109.91 180 106.797 180 103.234C180 99.8312 180.642 96.8139 181.925 94.1819C183.24 91.5177 185.117 89.4313 187.555 87.9227C190.025 86.4141 193.009 85.6598 196.506 85.6598C199.842 85.6598 202.842 86.2857 205.505 87.5375L204.398 89.9931C201.928 88.7733 199.281 88.1635 196.458 88.1635Z" fill="#F84C41"/>
<path d="M219.847 94.4708C221.098 94.4708 222.253 94.5992 223.312 94.8559L222.879 97.4078C221.852 97.1189 220.794 96.9744 219.703 96.9744C217.361 96.9744 215.5 97.8411 214.121 99.5744C212.741 101.308 212.052 103.603 212.052 106.459V120.519H209.309V94.9041H211.618L211.907 99.6707H212.052C212.693 98.2263 213.672 97.0065 214.987 96.0115C216.302 94.9843 217.922 94.4708 219.847 94.4708Z" fill="#F84C41"/>
<path d="M235.103 94.4226C237.285 94.4226 239.097 94.9362 240.541 95.9633C242.017 96.9584 243.123 98.3386 243.861 100.104C244.631 101.869 245.016 103.892 245.016 106.171V108.048H226.73C226.73 111.451 227.516 114.067 229.088 115.896C230.692 117.694 232.97 118.593 235.921 118.593C237.493 118.593 238.873 118.464 240.06 118.207C241.247 117.951 242.546 117.501 243.958 116.859V119.363C242.674 119.941 241.407 120.358 240.156 120.615C238.905 120.872 237.461 121 235.825 121C231.975 121 229.024 119.828 226.97 117.485C224.917 115.142 223.891 111.948 223.891 107.904C223.891 105.304 224.324 102.993 225.19 100.971C226.088 98.9485 227.371 97.3596 229.04 96.2041C230.708 95.0164 232.729 94.4226 235.103 94.4226ZM235.055 96.7337C232.713 96.7337 230.804 97.5201 229.328 99.0929C227.885 100.666 227.035 102.897 226.778 105.785H242.177C242.177 103.089 241.584 100.906 240.397 99.2374C239.242 97.5683 237.461 96.7337 235.055 96.7337Z" fill="#F84C41"/>
<path d="M259.056 94.4708C261.944 94.4708 264.093 95.1769 265.505 96.5893C266.916 98.0016 267.622 100.232 267.622 103.282V120.519H265.553L265.071 116.185H264.927C263.997 117.63 262.858 118.801 261.51 119.7C260.195 120.567 258.35 121 255.976 121C253.506 121 251.565 120.39 250.154 119.17C248.742 117.919 248.036 116.137 248.036 113.826C248.036 111.258 249.079 109.316 251.164 108C253.249 106.652 256.281 105.898 260.259 105.737L264.927 105.497V103.715C264.927 101.211 264.414 99.43 263.387 98.3707C262.393 97.3115 260.917 96.7818 258.96 96.7818C257.645 96.7818 256.377 96.9584 255.158 97.3115C253.939 97.6646 252.72 98.13 251.501 98.7077L250.635 96.493C251.854 95.9152 253.169 95.4337 254.581 95.0485C256.025 94.6634 257.516 94.4708 259.056 94.4708ZM264.927 107.567L260.596 107.759C257.324 107.92 254.886 108.498 253.282 109.493C251.677 110.456 250.875 111.9 250.875 113.826C250.875 115.431 251.373 116.651 252.367 117.485C253.362 118.288 254.725 118.689 256.458 118.689C259.12 118.689 261.19 117.935 262.665 116.426C264.141 114.885 264.895 112.767 264.927 110.071V107.567Z" fill="#F84C41"/>
<path d="M281.102 118.689C281.808 118.689 282.482 118.641 283.124 118.544C283.765 118.416 284.327 118.272 284.808 118.111V120.326C284.327 120.486 283.733 120.631 283.027 120.759C282.322 120.92 281.568 121 280.766 121C278.616 121 276.964 120.406 275.809 119.219C274.654 118.031 274.077 116.089 274.077 113.393V97.1189H270.275V95.5782L274.077 94.6634L275.039 88.7894H276.82V94.9041H284.664V97.1189H276.82V113.248C276.82 116.875 278.247 118.689 281.102 118.689Z" fill="#F84C41"/>
<path d="M289.709 85.4191C290.96 85.4191 291.586 86.1092 291.586 87.4894C291.586 88.9017 290.96 89.6079 289.709 89.6079C288.458 89.6079 287.832 88.9017 287.832 87.4894C287.832 86.1092 288.458 85.4191 289.709 85.4191ZM291.056 94.9041V120.519H288.313V94.9041H291.056Z" fill="#F84C41"/>
<path d="M303.202 120.519L293.385 94.9041H296.273L302.673 111.9C303.058 112.959 303.411 114.003 303.731 115.03C304.084 116.057 304.373 116.972 304.598 117.774H304.742C304.967 116.972 305.255 116.057 305.608 115.03C305.961 113.97 306.33 112.927 306.715 111.9L313.067 94.9041H315.954L306.138 120.519H303.202Z" fill="#F84C41"/>
<path d="M327.973 94.4226C330.154 94.4226 331.967 94.9362 333.411 95.9633C334.886 96.9584 335.993 98.3386 336.731 100.104C337.501 101.869 337.886 103.892 337.886 106.171V108.048H319.6C319.6 111.451 320.386 114.067 321.958 115.896C323.562 117.694 325.84 118.593 328.791 118.593C330.363 118.593 331.743 118.464 332.93 118.207C334.117 117.951 335.416 117.501 336.827 116.859V119.363C335.544 119.941 334.277 120.358 333.026 120.615C331.775 120.872 330.331 121 328.695 121C324.845 121 321.894 119.828 319.84 117.485C317.787 115.142 316.761 111.948 316.761 107.904C316.761 105.304 317.194 102.993 318.06 100.971C318.958 98.9485 320.241 97.3596 321.91 96.2041C323.578 95.0164 325.599 94.4226 327.973 94.4226ZM327.925 96.7337C325.583 96.7337 323.674 97.5201 322.198 99.0929C320.755 100.666 319.904 102.897 319.648 105.785H335.047C335.047 103.089 334.453 100.906 333.266 99.2374C332.111 97.5683 330.331 96.7337 327.925 96.7337Z" fill="#F84C41"/>
<path d="M359 113.73C359 116.041 358.134 117.838 356.401 119.122C354.669 120.374 352.231 121 349.087 121C347.29 121 345.702 120.84 344.323 120.519C342.943 120.23 341.788 119.844 340.858 119.363V116.715C341.981 117.293 343.264 117.774 344.708 118.159C346.151 118.512 347.627 118.689 349.135 118.689C351.637 118.689 353.45 118.272 354.573 117.437C355.728 116.57 356.305 115.399 356.305 113.922C356.305 112.51 355.712 111.435 354.525 110.696C353.338 109.926 351.589 109.14 349.279 108.337C347.675 107.792 346.264 107.246 345.045 106.7C343.858 106.122 342.927 105.4 342.254 104.534C341.58 103.667 341.243 102.479 341.243 100.971C341.243 98.9164 342.077 97.3115 343.745 96.1559C345.414 95.0004 347.643 94.4226 350.434 94.4226C351.974 94.4226 353.402 94.5671 354.717 94.8559C356.065 95.1448 357.3 95.53 358.423 96.0115L357.412 98.2744C356.417 97.8571 355.295 97.5041 354.043 97.2152C352.792 96.8942 351.541 96.7337 350.29 96.7337C348.269 96.7337 346.697 97.0868 345.574 97.7929C344.451 98.4991 343.89 99.5263 343.89 100.874C343.89 101.902 344.162 102.72 344.708 103.33C345.253 103.908 346.039 104.405 347.066 104.822C348.092 105.24 349.344 105.705 350.819 106.219C352.359 106.764 353.739 107.326 354.958 107.904C356.177 108.482 357.155 109.22 357.893 110.119C358.631 111.017 359 112.221 359 113.73Z" fill="#F84C41"/>
</svg>
