<svg width="64" height="64" viewBox="0 0 64 64" fill="none" xmlns="http://www.w3.org/2000/svg">
<path fill-rule="evenodd" clip-rule="evenodd" d="M32 64C49.6731 64 64 49.6731 64 32C64 14.3269 49.6731 0 32 0C14.3269 0 0 14.3269 0 32C0 49.6731 14.3269 64 32 64ZM25.5561 16H18.8V48H38.48V42.3967H25.5561V16ZM39.6341 44.64C40.0014 44.3628 40.352 44.0682 40.6859 43.7562C43.6953 40.9588 45.1999 36.9301 45.1999 31.6703C45.1999 26.731 43.7537 22.8844 40.8612 20.1307C37.9688 17.3769 33.9076 16 28.6778 16H26.6399V21.5512H29.0284C35.1055 21.5512 38.1441 24.9825 38.1441 31.8451C38.1441 36.5669 36.6587 39.698 33.6879 41.2385H39.6341V44.64ZM44.3999 48H39.6871V45.9559C40.313 45.5336 40.9012 45.067 41.4506 44.5552C41.6127 44.4049 41.7705 44.2515 41.9243 44.095L44.3999 48ZM28.2285 34.5171L26.6399 35.6511V28.8285L28.0305 26.8782L31.2769 22.8249C32.9057 23.1453 34.1204 23.8302 34.9968 24.8174C35.4007 25.2723 35.7505 25.811 36.0397 26.44L33.0909 30.1614L36.5643 35.6402C36.1981 37.0285 35.6119 38.116 34.8408 38.9396C34.1329 39.6957 33.2205 40.2808 32.0729 40.6682L28.2285 34.5171ZM44.3119 16L41.6864 19.3135L41.6354 19.2649C40.2081 17.9095 38.5341 16.8735 36.628 16.1439L36.7432 16H44.3119Z" fill="#292A3A"/>
</svg>
