<svg width="64" height="64" viewBox="0 0 64 64" fill="none" xmlns="http://www.w3.org/2000/svg">
<path fill-rule="evenodd" clip-rule="evenodd" d="M32 64C49.6731 64 64 49.6731 64 32C64 14.3269 49.6731 0 32 0C14.3269 0 0 14.3269 0 32C0 49.6731 14.3269 64 32 64ZM25.5561 16H18.8V48H38.48V42.3967H25.5561V16ZM39.6342 44.64C40.0014 44.3628 40.352 44.0682 40.686 43.7562C43.6954 40.9588 45.2 36.9301 45.2 31.6703C45.2 26.731 43.7538 22.8844 40.8613 20.1307C37.9688 17.3769 33.9077 16 28.6779 16H26.64V21.5512H29.0285C35.1056 21.5512 38.1441 24.9825 38.1441 31.8451C38.1441 36.5669 36.6588 39.698 33.688 41.2385H39.6342V44.64ZM44.4 48H39.6872V45.9559C40.3131 45.5336 40.9012 45.067 41.4507 44.5552C41.6127 44.4049 41.7706 44.2515 41.9244 44.095L44.4 48ZM28.2285 34.5171L26.64 35.6511V28.8285L28.0305 26.8782L31.277 22.8249C32.9058 23.1453 34.1205 23.8302 34.9969 24.8174C35.4008 25.2723 35.7505 25.811 36.0397 26.44L33.091 30.1614L36.5643 35.6402C36.1982 37.0285 35.612 38.116 34.8409 38.9396C34.133 39.6957 33.2206 40.2808 32.073 40.6682L28.2285 34.5171ZM44.312 16L41.6865 19.3135L41.6355 19.2649C40.2081 17.9095 38.5342 16.8735 36.6281 16.1439L36.7433 16H44.312Z" fill="#F7F6F4"/>
</svg>
